<?xml version="1.0" encoding="utf-8"?>
<!-- Generator: Adobe Illustrator 22.1.0, SVG Export Plug-In . SVG Version: 6.00 Build 0)  -->
<svg version="1.1" id="Layer_1" xmlns="http://www.w3.org/2000/svg" xmlns:xlink="http://www.w3.org/1999/xlink" x="0px" y="0px"
	 viewBox="0 0 1353.7 284.1" style="enable-background:new 0 0 1353.7 284.1;" xml:space="preserve">
<style type="text/css">
	.st0{fill:#FFFFFF;}
</style>
<g>
	<g>
		<g>
			<path class="st0" d="M321.7,141.7c0,0.5,0,1.1-0.1,1.6c-0.2-0.1-0.4-0.1-0.6-0.2c0-0.4,0-0.9,0.1-1.3
				C321.3,141.7,321.5,141.7,321.7,141.7z"/>
		</g>
	</g>
	<g>
		<g>
			<path class="st0" d="M344.4,52.2h-0.2c-5.9,0.1-10.5,4.9-10.4,10.8c0,3.3,1.6,6.2,4,8.1c-4.7,22.1-9.4,51.1-12.8,73.7
				c-0.1-0.1-0.3-0.1-0.4-0.2c-0.4-0.2-0.8-0.4-1.2-0.6c-0.6-0.3-1.1-0.5-1.6-0.7c-0.2-0.1-0.4-0.1-0.6-0.2c0-0.4,0-0.9,0.1-1.3
				C323.4,77.5,296.3,7.3,177.2,0C57,7.4,30.4,78.6,33.3,143.3c-1,0.4-2,0.8-3.2,1.4C26.7,122.1,22,93.1,17.3,71
				c2.4-1.9,3.9-4.8,4-8.1c0.1-5.9-4.6-10.7-10.4-10.8C5,52.2,0.1,56.8,0,62.6c-0.1,5.2,3.6,9.6,8.5,10.6
				c2.7,20.8,7.3,56.4,10.8,81.8c-3.9,6.7-6,16.7-2.6,31.8c5.5,24.3,15.2,36.6,25.6,41.6c2.2,1.1,4.4,1.8,6.7,2.2
				c1.5,0.3,3,0.4,4.5,0.5c3.1,7.1,6,12.5,8.2,15.8c19.8,28.7,44,37.3,44,37.3h142.6c0,0,24.3-8.6,44.1-37.3
				c2.2-3.2,5.1-8.6,8.2-15.8h0.5c3.6-0.1,7.3-0.8,10.9-2.5c10.6-4.8,20.5-17.2,26.1-41.9c3.4-15.1,1.3-25.1-2.6-31.8
				c3.5-25.3,8.1-61,10.8-81.8c2.1-0.4,4-1.4,5.5-3c2-2,3-4.7,3-7.6C354.9,56.8,350.1,52.2,344.4,52.2z M268,240.3l-1.8,0.2
				c-26.8,3.2-54.6,6.5-82,6.7c-1.2,0-2.4,0-3.6,0c-21.3,0-42.4-1.8-64-3.8c-7.7-0.7-15.6-1.5-23.4-2.4c-0.5,0-1.1-0.1-2.2-0.1
				c-1,0-3.1-0.1-4.5-0.2C61.4,203.5,56,153.3,55,139.6c16.4-6.7,34.8-9.8,52.3-12.3c17.1-2.5,35.4-4.3,55.9-5.5
				c5.9-0.4,12.1-0.5,18.3-0.5c28.6,0,59.5,3.6,91.8,10.7c8,1.7,17.1,4,26,7.6C298.3,153.3,293,203.1,268,240.3z"/>
		</g>
	</g>
</g>
<rect x="147.4" y="197.9" class="st0" width="8.5" height="8.5"/>
<rect x="198.4" y="197.9" class="st0" width="8.5" height="8.5"/>
<rect x="147.4" y="197.9" class="st0" width="8.5" height="8.5"/>
<rect x="198.4" y="197.9" class="st0" width="8.5" height="8.5"/>
<rect x="113.3" y="163.9" class="st0" width="17" height="25.5"/>
<rect x="147.4" y="197.9" class="st0" width="8.5" height="8.5"/>
<polygon class="st0" points="198.4,206.5 198.4,214.9 189.9,214.9 189.9,223.5 164.4,223.5 164.4,214.9 155.9,214.9 155.9,206.5 "/>
<rect x="198.4" y="197.9" class="st0" width="8.5" height="8.5"/>
<g>
	<path class="st0" d="M586.6,177.2c0,46-32.7,71.6-65.4,71.6c-18.9,0-33.8-7.6-46.2-20.5v7c0,6.8-5.4,12.2-12.4,12.2
		c-6.8,0-12.2-5.4-12.2-12.2V59.9c0-7,5.4-12.4,12.2-12.4c7,0,12.4,5.4,12.4,12.4v66.2c12.4-13,27.3-20.5,46.2-20.5
		C553.8,105.5,586.6,131.2,586.6,177.2z M562,177.2c0-31.9-18.7-48.7-44.3-48.7c-17.6,0-32.2,8.6-42.7,20.3v56.8
		c10.5,11.6,25.1,20.3,42.7,20.3C543.3,225.8,562,209.1,562,177.2z"/>
	<path class="st0" d="M750.9,177.2c0,42.7-27.6,71.6-69.2,71.6c-41.9,0-69.2-28.9-69.2-71.6c0-42.7,27.3-71.6,69.2-71.6
		C723.3,105.5,750.9,134.5,750.9,177.2z M726.3,176.9c0-35.7-24.1-48.9-44.6-48.9c-20.8,0-44.6,13.2-44.6,48.9
		c0,35.9,23.8,49.5,44.6,49.5C702.2,226.4,726.3,212.8,726.3,176.9z"/>
	<path class="st0" d="M861.2,234.5c0,4.6-2.4,7.6-6.2,9.5c-6.5,3-13.8,4.9-22.4,4.9c-12.7,0-39.5-2.2-39.5-35.7v-83.8h-19.2
		c-3,0-5.1-2.2-5.1-5.1c0-1.6,0.8-3.2,2.4-4.6l36.8-35.9c0.8-0.8,2.4-2.4,4.6-2.4c3,0,5.1,2.4,5.1,5.4v21.6h30.5
		c5.9,0,10.5,4.6,10.5,10.5s-4.6,10.5-10.5,10.5h-30.5V211c0,15.9,10.8,16.2,17.6,16.2c8.6,0,11.6-2.4,16.2-2.4
		C856.3,224.7,861.2,228.8,861.2,234.5z"/>
	<path class="st0" d="M1011.2,158.5v76.8c0,6.8-5.7,12.2-12.4,12.2s-12.2-5.4-12.2-12.2v-74.1c0-20.5-8.6-33-29.7-33
		c-19.5,0-33.5,12.4-44.3,25.9v81.1c0,6.8-5.7,12.2-12.4,12.2c-6.8,0-12.2-5.4-12.2-12.2V59.9c0-7,5.4-12.4,12.2-12.4
		c6.8,0,12.4,5.4,12.4,12.4v70.5c11.4-12.4,26.2-24.9,50.3-24.9C993.6,105.5,1011.2,129.6,1011.2,158.5z"/>
	<path class="st0" d="M1051.5,195.8v-76.8c0-6.8,5.7-12.2,12.4-12.2c6.8,0,12.2,5.4,12.2,12.2v74.1c0,20.5,8.6,33,29.7,33
		c19.5,0,33.5-12.4,44.3-25.9v-81.1c0-6.8,5.7-12.2,12.4-12.2c6.8,0,12.2,5.4,12.2,12.2v116c0,7-5.4,12.4-12.2,12.4
		c-6.8,0-12.4-5.4-12.4-12.4v-11.1c-11.4,12.4-26.2,24.9-50.3,24.9C1069,248.8,1051.5,224.7,1051.5,195.8z"/>
	<path class="st0" d="M1353.7,177.2c0,46-32.7,71.6-65.4,71.6c-18.9,0-33.8-7.6-46.2-20.5v7c0,6.8-5.4,12.2-12.4,12.2
		c-6.8,0-12.2-5.4-12.2-12.2V59.9c0-7,5.4-12.4,12.2-12.4c7,0,12.4,5.4,12.4,12.4v66.2c12.4-13,27.3-20.5,46.2-20.5
		C1320.9,105.5,1353.7,131.2,1353.7,177.2z M1329.1,177.2c0-31.9-18.7-48.7-44.3-48.7c-17.6,0-32.2,8.6-42.7,20.3v56.8
		c10.5,11.6,25.1,20.3,42.7,20.3C1310.4,225.8,1329.1,209.1,1329.1,177.2z"/>
</g>
<rect x="147.4" y="197.9" class="st0" width="8.5" height="8.5"/>
<rect x="198.4" y="197.9" class="st0" width="8.5" height="8.5"/>
<rect x="224" y="163.9" class="st0" width="17" height="25.5"/>
</svg>
