<svg id="Layer_1" xmlns="http://www.w3.org/2000/svg" viewBox="0 0 1353.7 284.1"><style>.st0{fill:#fff}</style><path class="st0" d="M321.7 141.7c0 .5 0 1.1-.1 1.6-.2-.1-.4-.1-.6-.2 0-.4 0-.9.1-1.3.2-.1.4-.1.6-.1z"/><path class="st0" d="M344.4 52.2h-.2c-5.9.1-10.5 4.9-10.4 10.8 0 3.3 1.6 6.2 4 8.1-4.7 22.1-9.4 51.1-12.8 73.7-.1-.1-.3-.1-.4-.2l-1.2-.6c-.6-.3-1.1-.5-1.6-.7-.2-.1-.4-.1-.6-.2 0-.4 0-.9.1-1.3C323.4 77.5 296.3 7.3 177.2 0 57 7.4 30.4 78.6 33.3 143.3c-1 .4-2 .8-3.2 1.4C26.7 122.1 22 93.1 17.3 71c2.4-1.9 3.9-4.8 4-8.1.1-5.9-4.6-10.7-10.4-10.8C5 52.2.1 56.8 0 62.6c-.1 5.2 3.6 9.6 8.5 10.6 2.7 20.8 7.3 56.4 10.8 81.8-3.9 6.7-6 16.7-2.6 31.8 5.5 24.3 15.2 36.6 25.6 41.6 2.2 1.1 4.4 1.8 6.7 2.2 1.5.3 3 .4 4.5.5 3.1 7.1 6 12.5 8.2 15.8 19.8 28.7 44 37.3 44 37.3h142.6s24.3-8.6 44.1-37.3c2.2-3.2 5.1-8.6 8.2-15.8h.5c3.6-.1 7.3-.8 10.9-2.5 10.6-4.8 20.5-17.2 26.1-41.9 3.4-15.1 1.3-25.1-2.6-31.8 3.5-25.3 8.1-61 10.8-81.8 2.1-.4 4-1.4 5.5-3 2-2 3-4.7 3-7.6.1-5.7-4.7-10.3-10.4-10.3zM268 240.3l-1.8.2c-26.8 3.2-54.6 6.5-82 6.7h-3.6c-21.3 0-42.4-1.8-64-3.8-7.7-.7-15.6-1.5-23.4-2.4-.5 0-1.1-.1-2.2-.1-1 0-3.1-.1-4.5-.2C61.4 203.5 56 153.3 55 139.6c16.4-6.7 34.8-9.8 52.3-12.3 17.1-2.5 35.4-4.3 55.9-5.5 5.9-.4 12.1-.5 18.3-.5 28.6 0 59.5 3.6 91.8 10.7 8 1.7 17.1 4 26 7.6-1 13.7-6.3 63.5-31.3 100.7z"/><path class="st0" d="M147.4 197.9h8.5v8.5h-8.5zm51 0h8.5v8.5h-8.5z"/><path class="st0" d="M147.4 197.9h8.5v8.5h-8.5zm51 0h8.5v8.5h-8.5zm-85.1-34h17v25.5h-17z"/><path class="st0" d="M147.4 197.9h8.5v8.5h-8.5zm51 8.6v8.4h-8.5v8.6h-25.5v-8.6h-8.5v-8.4zm0-8.6h8.5v8.5h-8.5zm388.2-20.7c0 46-32.7 71.6-65.4 71.6-18.9 0-33.8-7.6-46.2-20.5v7c0 6.8-5.4 12.2-12.4 12.2-6.8 0-12.2-5.4-12.2-12.2V59.9c0-7 5.4-12.4 12.2-12.4 7 0 12.4 5.4 12.4 12.4v66.2c12.4-13 27.3-20.5 46.2-20.5 32.6-.1 65.4 25.6 65.4 71.6zm-24.6 0c0-31.9-18.7-48.7-44.3-48.7-17.6 0-32.2 8.6-42.7 20.3v56.8c10.5 11.6 25.1 20.3 42.7 20.3 25.6-.1 44.3-16.8 44.3-48.7zm188.9 0c0 42.7-27.6 71.6-69.2 71.6-41.9 0-69.2-28.9-69.2-71.6 0-42.7 27.3-71.6 69.2-71.6 41.6-.1 69.2 28.9 69.2 71.6zm-24.6-.3c0-35.7-24.1-48.9-44.6-48.9-20.8 0-44.6 13.2-44.6 48.9 0 35.9 23.8 49.5 44.6 49.5 20.5 0 44.6-13.6 44.6-49.5zm134.9 57.6c0 4.6-2.4 7.6-6.2 9.5-6.5 3-13.8 4.9-22.4 4.9-12.7 0-39.5-2.2-39.5-35.7v-83.8h-19.2c-3 0-5.1-2.2-5.1-5.1 0-1.6.8-3.2 2.4-4.6L808 83.8c.8-.8 2.4-2.4 4.6-2.4 3 0 5.1 2.4 5.1 5.4v21.6h30.5c5.9 0 10.5 4.6 10.5 10.5s-4.6 10.5-10.5 10.5h-30.5V211c0 15.9 10.8 16.2 17.6 16.2 8.6 0 11.6-2.4 16.2-2.4 4.8-.1 9.7 4 9.7 9.7zm150-76v76.8c0 6.8-5.7 12.2-12.4 12.2s-12.2-5.4-12.2-12.2v-74.1c0-20.5-8.6-33-29.7-33-19.5 0-33.5 12.4-44.3 25.9v81.1c0 6.8-5.7 12.2-12.4 12.2-6.8 0-12.2-5.4-12.2-12.2V59.9c0-7 5.4-12.4 12.2-12.4 6.8 0 12.4 5.4 12.4 12.4v70.5c11.4-12.4 26.2-24.9 50.3-24.9 30.7 0 48.3 24.1 48.3 53zm40.3 37.3V119c0-6.8 5.7-12.2 12.4-12.2 6.8 0 12.2 5.4 12.2 12.2v74.1c0 20.5 8.6 33 29.7 33 19.5 0 33.5-12.4 44.3-25.9v-81.1c0-6.8 5.7-12.2 12.4-12.2 6.8 0 12.2 5.4 12.2 12.2v116c0 7-5.4 12.4-12.2 12.4-6.8 0-12.4-5.4-12.4-12.4V224c-11.4 12.4-26.2 24.9-50.3 24.9-30.8-.1-48.3-24.2-48.3-53.1zm302.2-18.6c0 46-32.7 71.6-65.4 71.6-18.9 0-33.8-7.6-46.2-20.5v7c0 6.8-5.4 12.2-12.4 12.2-6.8 0-12.2-5.4-12.2-12.2V59.9c0-7 5.4-12.4 12.2-12.4 7 0 12.4 5.4 12.4 12.4v66.2c12.4-13 27.3-20.5 46.2-20.5 32.6-.1 65.4 25.6 65.4 71.6zm-24.6 0c0-31.9-18.7-48.7-44.3-48.7-17.6 0-32.2 8.6-42.7 20.3v56.8c10.5 11.6 25.1 20.3 42.7 20.3 25.6-.1 44.3-16.8 44.3-48.7z"/><path class="st0" d="M147.4 197.9h8.5v8.5h-8.5zm51 0h8.5v8.5h-8.5zm25.6-34h17v25.5h-17z"/></svg>