<svg xmlns="http://www.w3.org/2000/svg" viewBox="0 0 917.2 734.1"><path fill="#FFF" class="st0" d="M889.8 134.8h-.4c-15.2.3-27.2 12.7-26.9 27.9.1 8.5 4.1 16 10.3 20.9-12.2 57.1-24.3 132-33.2 190.3-.4-.2-.7-.3-1-.5-1.1-.6-2.2-1.1-3.2-1.5-1.5-.7-2.9-1.3-4.2-1.8-.6-.2-1.1-.4-1.6-.6.1-1.1.1-2.3.2-3.4 6-165.9-64-347.3-371.9-366.1C147.2 19 78.6 203.2 86 370.2c-2.5 1-5.3 2.2-8.2 3.7-8.8-58.3-21-133.2-33.2-190.3 6.2-4.9 10.1-12.4 10.3-20.9.3-15.2-11.9-27.6-26.9-27.9-15 0-27.6 11.9-27.9 26.9-.3 13.4 9.3 24.8 22.1 27.3C29 242.8 40.9 334.9 50 400.3c-10.1 17.2-15.4 43.1-6.6 82.1 14.1 62.8 39.2 94.7 66.1 107.5 5.7 2.7 11.5 4.6 17.3 5.7 3.9.8 7.8 1.1 11.7 1.3 8 18.4 15.5 32.4 21.2 40.7 51.2 74.1 113.8 96.4 113.8 96.4H642s62.7-22.3 113.9-96.4c5.7-8.3 13.2-22.3 21.2-40.7h1.3c9.3-.2 18.8-2.2 28.2-6.3 27.3-12.4 53.1-44.3 67.5-108.2 8.8-38.9 3.4-64.9-6.6-82 9-65.4 21-157.6 27.9-211.3 5.5-1 10.4-3.7 14.3-7.8 5.1-5.3 7.8-12.2 7.7-19.5-.5-15-12.7-27-27.6-27zM692.5 620.9l-4.6.5c-69.4 8.2-141.1 16.7-211.8 17.4-3.1.1-6.2.1-9.3.1-55 0-109.5-4.7-165.2-9.9-19.9-1.8-40.3-3.9-60.4-6.1-1.3-.1-2.7-.2-5.6-.3-2.5-.1-8.1-.2-11.7-.6-65.2-96.2-79.1-225.8-81.7-261.2 42.3-17.3 89.9-25.2 135.2-31.8 44.3-6.5 91.6-11.1 144.5-14.2 15.3-1 31.2-1.4 47.3-1.4 73.9 0 153.6 9.3 237.1 27.8 20.5 4.5 44.3 10.3 67.1 19.6-2.7 35.4-16.4 164.1-80.9 260.1z"/><path fill="#FFF" class="st0" d="M380.8 511.4h22v22h-22zm131.9 0h22v22h-22z"/><path fill="#FFF" class="st0" d="M380.8 511.4h22v22h-22zm131.9 0h22v22h-22z"/><path fill="#FFF" class="st0" d="M380.8 511.4h22v22h-22zm131.9 22v22h-22v22h-66v-22h-21.9v-22zm0-22h22v22h-22z"/><path fill="#FFF" class="st0" d="M380.8 511.4h22v22h-22zm131.9 0h22v22h-22zm66-88h44v66h-44zm-285.9 0h44v66h-44z"/></svg>